# xmcd
#
# Track frame offsets:
# 150
# 11582
# 21870
# 33413
# 45134
# 57903
# 69448
# 85479
# 96634
# 108678
# 122276
# 134677
#
# Disc length: 1940 seconds
#
#
# Revision: 2
# Processed by: cddbd v1.5.1PL0 Copyright (c) Steve Scherf et al.
# Submitted via: FreeRIP 2.931 
#
DISCID=9f07920c
DTITLE=JOHN LEE HOOKER - Hitos
DYEAR=1900
DGENRE=Blues
TTITLE0=JOHN LEE HOOKER=Boom Boom
TTITLE1=JOHN LEE HOOKER=Big Legs Tight Skirt
TTITLE2=JOHN LEE HOOKER=Will The Circle Be Unbroken
TTITLE3=JOHN LEE HOOKER=Boogie Chillun
TTITLE4=JOHN LEE HOOKER=Hobo Blues
TTITLE5=JOHN LEE HOOKER=Solid Sender
TTITLE6=JOHN LEE HOOKER=It Serves Me Right To Suffer
TTITLE7=JOHN LEE HOOKER=This Is Hip
TTITLE8=JOHN LEE HOOKER=Crawlin' Kingsake
TTITLE9=JOHN LEE HOOKER=Every Night
TTITLE10=JOHN LEE HOOKER=I'm In The Mood
TTITLE11=JOHN LEE HOOKER=No Shoes
EXTD=AVM
EXTT0=
EXTT1=
EXTT2=
EXTT3=
EXTT4=
EXTT5=
EXTT6=
EXTT7=
EXTT8=
EXTT9=
EXTT10=
EXTT11=
PLAYORDER=
